<?xml version="1.0" encoding="UTF-8" ?>
<!DOCTYPE svg PUBLIC "-//W3C//DTD SVG 1.1//EN" "http://www.w3.org/Graphics/SVG/1.1/DTD/svg11.dtd">
<svg width="155pt" height="68pt" viewBox="0 0 155 68" version="1.1" xmlns="http://www.w3.org/2000/svg">
<g id="#fff159ff">
</g>
<g id="#000000ff">
<path fill="#000000" opacity="1.00" d=" M 4.20 31.98 C 4.14 24.35 11.40 17.61 19.00 18.16 C 23.14 18.09 27.07 20.20 29.74 23.29 C 33.96 27.76 33.67 34.97 31.02 40.16 C 27.75 46.24 23.31 51.61 18.69 56.71 C 14.53 52.35 10.75 47.61 7.58 42.48 C 5.69 39.31 4.05 35.76 4.20 31.98 M 7.81 24.89 C 4.86 28.91 4.75 34.49 7.07 38.84 C 10.09 44.68 13.96 50.18 18.85 54.60 C 23.68 49.38 28.27 43.69 31.07 37.09 C 33.32 31.88 31.29 25.53 26.88 22.13 C 21.23 17.63 11.90 18.85 7.81 24.89 Z" />
<path fill="#000000" opacity="1.00" d=" M 15.55 27.57 C 18.48 26.59 22.57 26.84 23.96 30.09 C 26.43 34.36 21.24 40.14 16.73 38.25 C 12.34 36.92 11.70 29.80 15.55 27.57 M 17.34 28.22 C 13.54 29.22 12.91 35.06 16.51 36.70 C 19.58 38.67 23.99 35.60 23.31 32.05 C 23.08 29.28 19.89 27.39 17.34 28.22 Z" />
</g>
</svg>
